# xmcd
#
# Track frame offsets:
#	150
#	19843
#	39703
#	58839
#	75348
#	94198
#	112700
#	128826
#	144075
#	159909
#	179435
#	196153
#	215275
#	231255
#	249464
#	264441
#	281125
#	301138
#	318107
#	335585
#
# Disc length: 4704 seconds
#
# Revision: 0
# Processed by: cddbd v1.5.1PL0 Copyright (c) Steve Scherf et al.
# Submitted via: dBpowerAMP V4.0
#
DISCID=09125e14
DTITLE=Westlife - World Of Our Own
DYEAR=1900
DGENRE=Pop
TTITLE0=Queen of my heart (radio edit)
TTITLE1=Bob bob baby
TTITLE2=I cry
TTITLE3=Why do i love you
TTITLE4=I wanna grow old with you
TTITLE5=Evergreen
TTITLE6=World of out own
TTITLE7=To be loved
TTITLE8=Drive
TTITLE9=If your heart's not in it
TTITLE10=when you come around
TTITLE11=Don't say it's to late
TTITLE12=Don't let me go
TTITLE13=Walk away
TTITLE14=Love crime
TTITLE15=Imaginary diva
TTITLE16=Angel
TTITLE17=I need you
TTITLE18=Fool again
TTITLE19=My love
EXTD=
EXTT0=
EXTT1=
EXTT2=
EXTT3=
EXTT4=
EXTT5=
EXTT6=
EXTT7=
EXTT8=
EXTT9=
EXTT10=
EXTT11=
EXTT12=
EXTT13=
EXTT14=
EXTT15=
EXTT16=
EXTT17=
EXTT18=
EXTT19=
PLAYORDER=
